<svg xmlns="http://www.w3.org/2000/svg" viewBox="0 0 32 32"><path fill="teal" d="M1.9 29.2L6.4 3.5H12c2 0 3.3.1 4 .2 1.2.3 2.2.9 3.1 1.7s1.6 2 2.1 3.5.8 3.2.8 5.2c0 2.1-.3 4.1-.8 5.9S20 23.4 19 24.8s-1.9 2.3-3 3c-1 .6-2.1 1-3.2 1.3-.7.2-1.9.2-3.5.2H1.9zM7 25.1h2.2c1.6 0 2.7-.1 3.4-.3.8-.3 1.6-.9 2.4-1.7.7-.9 1.4-2.1 1.9-3.6.5-1.6.8-3.3.8-5.4 0-1.7-.2-3-.7-4-.4-1-1-1.6-1.8-2-.5-.2-1.5-.4-2.8-.4H10L7 25.1z"/><path fill="teal" fill-opacity=".7" d="M11.7 10.7h20V12h-20zm-.7 4.8h20v1.3H11zm-1.3 4.8h20v1.3h-20z"/></svg>